<?xml version="1.0" standalone="no"?>
<!DOCTYPE svg PUBLIC "-//W3C//DTD SVG 20010904//EN"
 "http://www.w3.org/TR/2001/REC-SVG-20010904/DTD/svg10.dtd">
<svg version="1.0" xmlns="http://www.w3.org/2000/svg"
 width="500.000000pt" height="500.000000pt" viewBox="0 0 500.000000 500.000000"
 preserveAspectRatio="xMidYMid meet">
<metadata>
Created by potrace 1.16, written by Peter Selinger 2001-2019
</metadata>
<g transform="translate(0.000000,500.000000) scale(0.100000,-0.100000)"
fill="#000000" stroke="none">
<path d="M1909 4027 c-333 -128 -614 -238 -623 -246 -14 -12 -16 -52 -16 -366
0 -336 1 -353 20 -370 18 -17 41 -11 632 167 l613 184 3 432 c2 342 0 432 -10
431 -7 0 -286 -105 -619 -232z"/>
<path d="M2610 3830 l0 -429 33 -5 c17 -3 237 -26 487 -51 250 -25 501 -51
558 -57 93 -10 105 -9 120 6 15 15 17 54 20 354 2 185 0 347 -3 359 -3 12 -13
27 -23 32 -19 10 -1137 221 -1172 221 -20 0 -20 -4 -20 -430z"/>
<path d="M2320 3109 c-107 -33 -232 -71 -277 -84 -45 -14 -89 -32 -97 -41 -14
-14 -16 -93 -16 -689 l0 -675 23 -14 c12 -8 132 -53 267 -101 135 -48 262 -93
283 -101 l37 -13 0 889 c0 706 -3 890 -12 889 -7 0 -101 -27 -208 -60z"/>
<path d="M3185 2320 c-308 -32 -563 -59 -567 -59 -5 -1 -8 -197 -8 -436 l0
-435 23 5 c12 3 275 52 584 110 310 57 572 109 583 115 11 6 22 21 25 33 3 12
5 174 3 360 -3 322 -4 339 -22 353 -25 17 38 22 -621 -46z"/>
<path d="M1927 1553 c-4 -3 -7 -15 -7 -25 0 -14 7 -18 28 -16 15 1 158 -47
319 -105 160 -59 301 -107 312 -107 11 0 129 20 263 45 733 137 935 173 958
172 16 -1 26 4 28 16 5 22 -27 35 -42 16 -7 -10 -207 -51 -613 -127 l-601
-112 -299 110 c-164 61 -303 117 -309 125 -12 16 -26 19 -37 8z"/>
<path d="M434 1043 l-102 -4 -4 -34 c-4 -33 -2 -34 32 -37 l35 -3 -3 -112 -4
-113 46 0 46 0 0 120 0 121 35 -7 35 -6 0 41 c0 22 -3 40 -7 39 -5 -1 -54 -4
-109 -5z"/>
<path d="M905 1040 c-11 -4 -32 -21 -47 -36 -63 -68 -54 -186 18 -243 37 -29
131 -29 168 0 31 24 32 30 8 59 -16 20 -19 20 -47 6 -39 -21 -47 -20 -79 5
-20 16 -26 29 -26 60 0 68 58 100 114 63 23 -14 25 -14 40 8 23 33 20 46 -16
68 -34 21 -97 25 -133 10z"/>
<path d="M1458 1043 l-28 -4 0 -150 0 -149 40 0 39 0 3 81 3 81 60 -81 c56
-75 62 -80 98 -81 l37 0 0 150 0 150 -40 0 -39 0 -3 -81 -3 -80 -62 85 c-34
47 -66 85 -70 85 -5 -1 -20 -4 -35 -6z"/>
<path d="M1950 1028 c-90 -61 -94 -216 -6 -269 43 -27 129 -26 167 2 28 20 28
21 14 50 -18 34 -13 33 -59 14 -51 -22 -87 -4 -100 48 -8 31 -6 42 11 65 24
33 65 40 100 17 27 -18 28 -17 53 26 16 28 -31 62 -92 67 -44 3 -59 0 -88 -20z"/>
<path d="M2242 1023 c-6 -16 -31 -85 -56 -155 l-46 -128 45 0 c25 0 45 4 45 9
0 22 34 41 71 41 33 0 40 -4 45 -25 5 -22 12 -25 50 -25 30 0 44 4 44 14 0 7
-25 77 -56 155 l-56 141 -38 0 c-32 0 -40 -4 -48 -27z"/>
<path d="M2890 1031 c-38 -20 -80 -88 -80 -130 0 -51 21 -100 56 -130 30 -27
42 -31 93 -31 44 0 65 5 85 21 31 24 32 30 8 59 -17 21 -18 22 -55 4 -36 -17
-38 -17 -65 3 -34 25 -43 94 -16 124 20 23 63 25 90 4 27 -20 31 -19 49 15 19
36 14 47 -31 66 -46 19 -93 18 -134 -5z"/>
<path d="M3170 1032 c-51 -25 -80 -74 -80 -134 0 -101 54 -158 150 -158 96 0
150 57 150 158 0 85 -66 152 -150 152 -19 0 -51 -8 -70 -18z m117 -84 c47 -44
18 -131 -45 -131 -44 0 -72 28 -72 71 0 70 69 106 117 60z"/>
<path d="M3758 1043 l-28 -4 0 -150 0 -149 40 0 39 0 3 80 3 80 60 -79 c56
-75 62 -80 98 -81 l37 0 0 150 0 150 -40 0 -39 0 -3 -81 -3 -80 -62 85 c-34
47 -66 85 -70 85 -5 -1 -20 -4 -35 -6z"/>
<path d="M4122 1030 c-96 -59 -98 -225 -3 -275 60 -31 181 -9 181 33 0 9 -7
25 -15 36 -14 18 -16 18 -50 2 -30 -15 -39 -15 -62 -4 -68 33 -48 148 26 148
15 0 36 -7 47 -15 26 -20 29 -19 42 10 17 38 15 43 -20 65 -42 26 -104 26
-146 0z"/>
<path d="M574 890 l0 -151 105 3 106 3 3 35 3 35 -63 0 c-58 0 -63 2 -66 23
-3 20 0 22 51 22 57 0 67 8 67 51 0 17 -8 19 -61 19 -57 0 -60 1 -57 23 3 21
7 22 67 18 57 -3 63 -1 57 14 -3 9 -6 25 -6 36 0 17 -8 19 -102 19 l-103 0 -1
-150z"/>
<path d="M1100 890 l0 -150 46 0 46 0 -7 60 -7 60 61 0 61 0 0 -60 0 -60 43 0
42 0 0 150 0 150 -42 0 -43 0 0 -55 0 -55 -61 0 -62 0 7 55 6 55 -45 0 -45 0
0 -150z"/>
<path d="M1760 921 c0 -65 -3 -133 -6 -150 l-6 -31 46 0 46 0 0 119 c0 65 3
133 6 150 l7 31 -47 0 -46 0 0 -119z"/>
<path d="M2470 890 l0 -150 105 0 105 0 0 35 0 35 -67 0 -66 0 6 115 6 115
-44 0 -45 0 0 -150z"/>
<path d="M3428 923 c1 -65 5 -127 7 -139 7 -30 46 -44 125 -44 57 0 73 4 94
23 23 21 24 30 29 150 l5 127 -44 0 -44 0 0 -110 c0 -98 -2 -110 -19 -120 -27
-14 -37 -13 -55 6 -13 12 -16 38 -16 120 l0 104 -42 0 -43 0 3 -117z"/>
<path d="M4330 890 l0 -150 45 0 45 0 0 150 0 150 -45 0 -45 0 0 -150z"/>
<path d="M4464 890 l1 -150 103 0 102 0 0 35 0 35 -60 0 -60 0 0 115 0 115
-44 0 -44 0 2 -150z"/>
</g>
</svg>
