<?xml version="1.0" encoding="UTF-8" standalone="no" ?>
<!DOCTYPE svg PUBLIC "-//W3C//DTD SVG 1.1//EN" "http://www.w3.org/Graphics/SVG/1.1/DTD/svg11.dtd">
<svg xmlns="http://www.w3.org/2000/svg" xmlns:xlink="http://www.w3.org/1999/xlink" version="1.1" width="1080" height="1080" viewBox="0 0 1080 1080" xml:space="preserve">
<desc>Created with Fabric.js 5.2.4</desc>
<defs>
</defs>
<g transform="matrix(1 0 0 1 540 540)" id="df0a52cd-df9c-4f54-a66f-e6cd9a7a3857"  >
<rect style="stroke: none; stroke-width: 1; stroke-dasharray: none; stroke-linecap: butt; stroke-dashoffset: 0; stroke-linejoin: miter; stroke-miterlimit: 4; fill: rgb(255,255,255); fill-rule: nonzero; opacity: 1; visibility: hidden;" vector-effect="non-scaling-stroke"  x="-540" y="-540" rx="0" ry="0" width="1080" height="1080" />
</g>
<g transform="matrix(1 0 0 1 540 540)" id="01acd367-9734-4f22-ba39-d5ef0922096c"  >
</g>
<g transform="matrix(1 0 0 1 540 540)"  >
<g style="" vector-effect="non-scaling-stroke"   >
		<g transform="matrix(0.13 0 0 -0.13 -79.19 -153.25)"  >
<path style="stroke: none; stroke-width: 1; stroke-dasharray: none; stroke-linecap: butt; stroke-dashoffset: 0; stroke-linejoin: miter; stroke-miterlimit: 4; fill: rgb(255,255,255); fill-rule: nonzero; opacity: 1;" vector-effect="non-scaling-stroke"  transform=" translate(-1904.35, -3648.86)" d="M 1909 4027 C 1576 3899 1295 3789 1286 3781 C 1272 3769 1270 3729 1270 3415 C 1270 3079 1271 3062 1290 3045 C 1308 3028 1331 3034 1922 3212 L 2535 3396 L 2538 3828 C 2540 4170 2538 4260 2528 4259 C 2521 4259 2242 4154 1909 4027 z" stroke-linecap="round" />
</g>
		<g transform="matrix(0.13 0 0 -0.13 96.15 -169.5)"  >
<path style="stroke: none; stroke-width: 1; stroke-dasharray: none; stroke-linecap: butt; stroke-dashoffset: 0; stroke-linejoin: miter; stroke-miterlimit: 4; fill: rgb(255,255,255); fill-rule: nonzero; opacity: 1;" vector-effect="non-scaling-stroke"  transform=" translate(-3219.4, -3770.72)" d="M 2610 3830 L 2610 3401 L 2643 3396 C 2660 3393 2880 3370 3130 3345 C 3380 3320 3631 3294 3688 3288 C 3781 3278 3793 3279 3808 3294 C 3823 3309 3825 3348 3828 3648 C 3830 3833 3828 3995 3825 4007 C 3822 4019 3812 4034 3802 4039 C 3783 4049 2665 4260 2630 4260 C 2610 4260 2610 4256 2610 3830 z" stroke-linecap="round" />
</g>
		<g transform="matrix(0.13 0 0 -0.13 -35.1 29.27)"  >
<path style="stroke: none; stroke-width: 1; stroke-dasharray: none; stroke-linecap: butt; stroke-dashoffset: 0; stroke-linejoin: miter; stroke-miterlimit: 4; fill: rgb(255,255,255); fill-rule: nonzero; opacity: 1;" vector-effect="non-scaling-stroke"  transform=" translate(-2235, -2280)" d="M 2320 3109 C 2213 3076 2088 3038 2043 3025 C 1998 3011 1954 2993 1946 2984 C 1932 2970 1930 2891 1930 2295 L 1930 1620 L 1953 1606 C 1965 1598 2085 1553 2220 1505 C 2355 1457 2482 1412 2503 1404 L 2540 1391 L 2540 2280 C 2540 2986 2537 3170 2528 3169 C 2521 3169 2427 3142 2320 3109 z" stroke-linecap="round" />
</g>
		<g transform="matrix(0.13 0 0 -0.13 96.15 82.14)"  >
<path style="stroke: none; stroke-width: 1; stroke-dasharray: none; stroke-linecap: butt; stroke-dashoffset: 0; stroke-linejoin: miter; stroke-miterlimit: 4; fill: rgb(255,255,255); fill-rule: nonzero; opacity: 1;" vector-effect="non-scaling-stroke"  transform=" translate(-3219.4, -1883.43)" d="M 3185 2320 C 2877 2288 2622 2261 2618 2261 C 2613 2260 2610 2064 2610 1825 L 2610 1390 L 2633 1395 C 2645 1398 2908 1447 3217 1505 C 3527 1562 3789 1614 3800 1620 C 3811 1626 3822 1641 3825 1653 C 3828 1665 3830 1827 3828 2013 C 3825 2335 3824 2352 3806 2366 C 3781 2383 3844 2388 3185 2320 z" stroke-linecap="round" />
</g>
		<g transform="matrix(0.13 0 0 -0.13 50.13 142.63)"  >
<path style="stroke: none; stroke-width: 1; stroke-dasharray: none; stroke-linecap: butt; stroke-dashoffset: 0; stroke-linejoin: miter; stroke-miterlimit: 4; fill: rgb(255,255,255); fill-rule: nonzero; opacity: 1;" vector-effect="non-scaling-stroke"  transform=" translate(-2874.26, -1429.77)" d="M 1927 1553 C 1923 1550 1920 1538 1920 1528 C 1920 1514 1927 1510 1948 1512 C 1963 1513 2106 1465 2267 1407 C 2427 1348 2568 1300 2579 1300 C 2590 1300 2708 1320 2842 1345 C 3575 1482 3777 1518 3800 1517 C 3816 1516 3826 1521 3828 1533 C 3833 1555 3801 1568 3786 1549 C 3779 1539 3579 1498 3173 1422 L 2572 1310 L 2273 1420 C 2109 1481 1970 1537 1964 1545 C 1952 1561 1938 1564 1927 1553 z" stroke-linecap="round" />
</g>
		<g transform="matrix(0.13 0 0 -0.13 -274.67 214.06)"  >
<path style="stroke: none; stroke-width: 1; stroke-dasharray: none; stroke-linecap: butt; stroke-dashoffset: 0; stroke-linejoin: miter; stroke-miterlimit: 4; fill: rgb(255,255,255); fill-rule: nonzero; opacity: 1;" vector-effect="non-scaling-stroke"  transform=" translate(-438.25, -894.02)" d="M 434 1043 L 332 1039 L 328 1005 C 324 972 326 971 360 968 L 395 965 L 392 853 L 388 740 L 434 740 L 480 740 L 480 860 L 480 981 L 515 974 L 550 968 L 550 1009 C 550 1031 547 1049 543 1048 C 538 1047 489 1044 434 1043 z" stroke-linecap="round" />
</g>
		<g transform="matrix(0.13 0 0 -0.13 -207.46 214.05)"  >
<path style="stroke: none; stroke-width: 1; stroke-dasharray: none; stroke-linecap: butt; stroke-dashoffset: 0; stroke-linejoin: miter; stroke-miterlimit: 4; fill: rgb(255,255,255); fill-rule: nonzero; opacity: 1;" vector-effect="non-scaling-stroke"  transform=" translate(-942.32, -894.13)" d="M 905 1040 C 894 1036 873 1019 858 1004 C 795 936 804 818 876 761 C 913 732 1007 732 1044 761 C 1075 785 1076 791 1052 820 C 1036 840 1033 840 1005 826 C 966 805 958 806 926 831 C 906 847 900 860 900 891 C 900 959 958 991 1014 954 C 1037 940 1039 940 1054 962 C 1077 995 1074 1008 1038 1030 C 1004 1051 941 1055 905 1040 z" stroke-linecap="round" />
</g>
		<g transform="matrix(0.13 0 0 -0.13 -123.77 214)"  >
<path style="stroke: none; stroke-width: 1; stroke-dasharray: none; stroke-linecap: butt; stroke-dashoffset: 0; stroke-linejoin: miter; stroke-miterlimit: 4; fill: rgb(255,255,255); fill-rule: nonzero; opacity: 1;" vector-effect="non-scaling-stroke"  transform=" translate(-1570, -894.5)" d="M 1458 1043 L 1430 1039 L 1430 889 L 1430 740 L 1470 740 L 1509 740 L 1512 821 L 1515 902 L 1575 821 C 1631 746 1637 741 1673 740 L 1710 740 L 1710 890 L 1710 1040 L 1670 1040 L 1631 1040 L 1628 959 L 1625 879 L 1563 964 C 1529 1011 1497 1049 1493 1049 C 1488 1048 1473 1045 1458 1043 z" stroke-linecap="round" />
</g>
		<g transform="matrix(0.13 0 0 -0.13 -65.47 214.04)"  >
<path style="stroke: none; stroke-width: 1; stroke-dasharray: none; stroke-linecap: butt; stroke-dashoffset: 0; stroke-linejoin: miter; stroke-miterlimit: 4; fill: rgb(255,255,255); fill-rule: nonzero; opacity: 1;" vector-effect="non-scaling-stroke"  transform=" translate(-2007.2, -894.18)" d="M 1950 1028 C 1860 967 1856 812 1944 759 C 1987 732 2073 733 2111 761 C 2139 781 2139 782 2125 811 C 2107 845 2112 844 2066 825 C 2015 803 1979 821 1966 873 C 1958 904 1960 915 1977 938 C 2001 971 2042 978 2077 955 C 2104 937 2105 938 2130 981 C 2146 1009 2099 1043 2038 1048 C 1994 1051 1979 1048 1950 1028 z" stroke-linecap="round" />
</g>
		<g transform="matrix(0.13 0 0 -0.13 -27.77 213.93)"  >
<path style="stroke: none; stroke-width: 1; stroke-dasharray: none; stroke-linecap: butt; stroke-dashoffset: 0; stroke-linejoin: miter; stroke-miterlimit: 4; fill: rgb(255,255,255); fill-rule: nonzero; opacity: 1;" vector-effect="non-scaling-stroke"  transform=" translate(-2290, -895)" d="M 2242 1023 C 2236 1007 2211 938 2186 868 L 2140 740 L 2185 740 C 2210 740 2230 744 2230 749 C 2230 771 2264 790 2301 790 C 2334 790 2341 786 2346 765 C 2351 743 2358 740 2396 740 C 2426 740 2440 744 2440 754 C 2440 761 2415 831 2384 909 L 2328 1050 L 2290 1050 C 2258 1050 2250 1046 2242 1023 z" stroke-linecap="round" />
</g>
		<g transform="matrix(0.13 0 0 -0.13 58.82 213.98)"  >
<path style="stroke: none; stroke-width: 1; stroke-dasharray: none; stroke-linecap: butt; stroke-dashoffset: 0; stroke-linejoin: miter; stroke-miterlimit: 4; fill: rgb(255,255,255); fill-rule: nonzero; opacity: 1;" vector-effect="non-scaling-stroke"  transform=" translate(-2939.38, -894.67)" d="M 2890 1031 C 2852 1011 2810 943 2810 901 C 2810 850 2831 801 2866 771 C 2896 744 2908 740 2959 740 C 3003 740 3024 745 3044 761 C 3075 785 3076 791 3052 820 C 3035 841 3034 842 2997 824 C 2961 807 2959 807 2932 827 C 2898 852 2889 921 2916 951 C 2936 974 2979 976 3006 955 C 3033 935 3037 936 3055 970 C 3074 1006 3069 1017 3024 1036 C 2978 1055 2931 1054 2890 1031 z" stroke-linecap="round" />
</g>
		<g transform="matrix(0.13 0 0 -0.13 98.9 213.93)"  >
<path style="stroke: none; stroke-width: 1; stroke-dasharray: none; stroke-linecap: butt; stroke-dashoffset: 0; stroke-linejoin: miter; stroke-miterlimit: 4; fill: rgb(255,255,255); fill-rule: nonzero; opacity: 1;" vector-effect="non-scaling-stroke"  transform=" translate(-3240, -895)" d="M 3170 1032 C 3119 1007 3090 958 3090 898 C 3090 797 3144 740 3240 740 C 3336 740 3390 797 3390 898 C 3390 983 3324 1050 3240 1050 C 3221 1050 3189 1042 3170 1032 z M 3287 948 C 3334 904 3305 817 3242 817 C 3198 817 3170 845 3170 888 C 3170 958 3239 994 3287 948 z" stroke-linecap="round" />
</g>
		<g transform="matrix(0.13 0 0 -0.13 182.9 214)"  >
<path style="stroke: none; stroke-width: 1; stroke-dasharray: none; stroke-linecap: butt; stroke-dashoffset: 0; stroke-linejoin: miter; stroke-miterlimit: 4; fill: rgb(255,255,255); fill-rule: nonzero; opacity: 1;" vector-effect="non-scaling-stroke"  transform=" translate(-3870, -894.5)" d="M 3758 1043 L 3730 1039 L 3730 889 L 3730 740 L 3770 740 L 3809 740 L 3812 820 L 3815 900 L 3875 821 C 3931 746 3937 741 3973 740 L 4010 740 L 4010 890 L 4010 1040 L 3970 1040 L 3931 1040 L 3928 959 L 3925 879 L 3863 964 C 3829 1011 3797 1049 3793 1049 C 3788 1048 3773 1045 3758 1043 z" stroke-linecap="round" />
</g>
		<g transform="matrix(0.13 0 0 -0.13 223.49 213.94)"  >
<path style="stroke: none; stroke-width: 1; stroke-dasharray: none; stroke-linecap: butt; stroke-dashoffset: 0; stroke-linejoin: miter; stroke-miterlimit: 4; fill: rgb(255,255,255); fill-rule: nonzero; opacity: 1;" vector-effect="non-scaling-stroke"  transform=" translate(-4174.43, -894.97)" d="M 4122 1030 C 4026 971 4024 805 4119 755 C 4179 724 4300 746 4300 788 C 4300 797 4293 813 4285 824 C 4271 842 4269 842 4235 826 C 4205 811 4196 811 4173 822 C 4105 855 4125 970 4199 970 C 4214 970 4235 963 4246 955 C 4272 935 4275 936 4288 965 C 4305 1003 4303 1008 4268 1030 C 4226 1056 4164 1056 4122 1030 z" stroke-linecap="round" />
</g>
		<g transform="matrix(0.13 0 0 -0.13 -242.1 214.67)"  >
<path style="stroke: none; stroke-width: 1; stroke-dasharray: none; stroke-linecap: butt; stroke-dashoffset: 0; stroke-linejoin: miter; stroke-miterlimit: 4; fill: rgb(255,255,255); fill-rule: nonzero; opacity: 1;" vector-effect="non-scaling-stroke"  transform=" translate(-682.5, -889.5)" d="M 574 890 L 574 739 L 679 742 L 785 745 L 788 780 L 791 815 L 728 815 C 670 815 665 817 662 838 C 659 858 662 860 713 860 C 770 860 780 868 780 911 C 780 928 772 930 719 930 C 662 930 659 931 662 953 C 665 974 669 975 729 971 C 786 968 792 970 786 985 C 783 994 780 1010 780 1021 C 780 1038 772 1040 678 1040 L 575 1040 L 574 890 z" stroke-linecap="round" />
</g>
		<g transform="matrix(0.13 0 0 -0.13 -167.43 214.6)"  >
<path style="stroke: none; stroke-width: 1; stroke-dasharray: none; stroke-linecap: butt; stroke-dashoffset: 0; stroke-linejoin: miter; stroke-miterlimit: 4; fill: rgb(255,255,255); fill-rule: nonzero; opacity: 1;" vector-effect="non-scaling-stroke"  transform=" translate(-1242.5, -890)" d="M 1100 890 L 1100 740 L 1146 740 L 1192 740 L 1185 800 L 1178 860 L 1239 860 L 1300 860 L 1300 800 L 1300 740 L 1343 740 L 1385 740 L 1385 890 L 1385 1040 L 1343 1040 L 1300 1040 L 1300 985 L 1300 930 L 1239 930 L 1177 930 L 1184 985 L 1190 1040 L 1145 1040 L 1100 1040 L 1100 890 z" stroke-linecap="round" />
</g>
		<g transform="matrix(0.13 0 0 -0.13 -93.03 214.6)"  >
<path style="stroke: none; stroke-width: 1; stroke-dasharray: none; stroke-linecap: butt; stroke-dashoffset: 0; stroke-linejoin: miter; stroke-miterlimit: 4; fill: rgb(255,255,255); fill-rule: nonzero; opacity: 1;" vector-effect="non-scaling-stroke"  transform=" translate(-1800.5, -890)" d="M 1760 921 C 1760 856 1757 788 1754 771 L 1748 740 L 1794 740 L 1840 740 L 1840 859 C 1840 924 1843 992 1846 1009 L 1853 1040 L 1806 1040 L 1760 1040 L 1760 921 z" stroke-linecap="round" />
</g>
		<g transform="matrix(0.13 0 0 -0.13 10.23 214.6)"  >
<path style="stroke: none; stroke-width: 1; stroke-dasharray: none; stroke-linecap: butt; stroke-dashoffset: 0; stroke-linejoin: miter; stroke-miterlimit: 4; fill: rgb(255,255,255); fill-rule: nonzero; opacity: 1;" vector-effect="non-scaling-stroke"  transform=" translate(-2575, -890)" d="M 2470 890 L 2470 740 L 2575 740 L 2680 740 L 2680 775 L 2680 810 L 2613 810 L 2547 810 L 2553 925 L 2559 1040 L 2515 1040 L 2470 1040 L 2470 890 z" stroke-linecap="round" />
</g>
		<g transform="matrix(0.13 0 0 -0.13 141.1 214.6)"  >
<path style="stroke: none; stroke-width: 1; stroke-dasharray: none; stroke-linecap: butt; stroke-dashoffset: 0; stroke-linejoin: miter; stroke-miterlimit: 4; fill: rgb(255,255,255); fill-rule: nonzero; opacity: 1;" vector-effect="non-scaling-stroke"  transform=" translate(-3556.5, -890)" d="M 3428 923 C 3429 858 3433 796 3435 784 C 3442 754 3481 740 3560 740 C 3617 740 3633 744 3654 763 C 3677 784 3678 793 3683 913 L 3688 1040 L 3644 1040 L 3600 1040 L 3600 930 C 3600 832 3598 820 3581 810 C 3554 796 3544 797 3526 816 C 3513 828 3510 854 3510 936 L 3510 1040 L 3468 1040 L 3425 1040 L 3428 923 z" stroke-linecap="round" />
</g>
		<g transform="matrix(0.13 0 0 -0.13 250.23 214.6)"  >
<path style="stroke: none; stroke-width: 1; stroke-dasharray: none; stroke-linecap: butt; stroke-dashoffset: 0; stroke-linejoin: miter; stroke-miterlimit: 4; fill: rgb(255,255,255); fill-rule: nonzero; opacity: 1;" vector-effect="non-scaling-stroke"  transform=" translate(-4375, -890)" d="M 4330 890 L 4330 740 L 4375 740 L 4420 740 L 4420 890 L 4420 1040 L 4375 1040 L 4330 1040 L 4330 890 z" stroke-linecap="round" />
</g>
		<g transform="matrix(0.13 0 0 -0.13 275.7 214.6)"  >
<path style="stroke: none; stroke-width: 1; stroke-dasharray: none; stroke-linecap: butt; stroke-dashoffset: 0; stroke-linejoin: miter; stroke-miterlimit: 4; fill: rgb(255,255,255); fill-rule: nonzero; opacity: 1;" vector-effect="non-scaling-stroke"  transform=" translate(-4566, -890)" d="M 4464 890 L 4465 740 L 4568 740 L 4670 740 L 4670 775 L 4670 810 L 4610 810 L 4550 810 L 4550 925 L 4550 1040 L 4506 1040 L 4462 1040 L 4464 890 z" stroke-linecap="round" />
</g>
</g>
</g>
</svg>